<?xml version="1.0" standalone="no"?>
<!DOCTYPE svg PUBLIC "-//W3C//DTD SVG 20010904//EN"
 "http://www.w3.org/TR/2001/REC-SVG-20010904/DTD/svg10.dtd">
<svg version="1.0" xmlns="http://www.w3.org/2000/svg"
 width="320.000000pt" height="320.000000pt" viewBox="0 0 320.000000 320.000000"
 preserveAspectRatio="xMidYMid meet">

<g transform="translate(0.000000,320.000000) scale(0.100000,-0.100000)"
fill="#000000" stroke="none">
<path d="M695 2771 c-82 -21 -180 -103 -224 -189 -48 -94 -53 -137 -45 -425 7
-300 3 -331 -52 -396 -35 -40 -98 -71 -176 -85 l-38 -7 0 -59 c0 -57 1 -60 28
-65 132 -28 182 -60 219 -142 l26 -56 -7 -276 c-6 -235 -5 -285 9 -335 32
-119 109 -222 200 -266 87 -42 238 -37 299 11 22 17 26 28 26 74 l0 53 -98 4
c-129 4 -168 27 -215 126 l-32 67 0 290 c0 249 -3 297 -18 341 -23 68 -87 140
-138 155 -47 15 -50 24 -8 33 48 9 123 90 145 156 17 48 19 89 19 345 l0 290
33 67 c49 100 100 128 233 128 l79 0 0 53 c0 61 -14 80 -77 103 -41 14 -139
17 -188 5z"/>
<path d="M2317 2756 c-63 -23 -77 -42 -77 -102 l0 -52 93 -4 c114 -4 158 -24
199 -87 50 -79 53 -104 53 -411 0 -274 1 -287 23 -342 26 -64 95 -135 142
-145 41 -8 38 -18 -9 -32 -51 -15 -114 -86 -138 -154 -16 -46 -18 -88 -18
-342 l0 -290 -33 -68 c-49 -99 -85 -120 -213 -125 l-99 -4 0 -53 c0 -46 4 -57
26 -74 42 -33 91 -44 176 -38 93 6 150 31 211 91 51 52 91 123 112 202 14 50
15 98 9 327 -8 312 -4 338 62 403 40 40 85 60 177 79 26 5 27 8 27 64 l0 60
-57 11 c-77 16 -125 42 -161 86 -51 62 -55 95 -48 391 8 288 3 331 -45 425
-33 64 -113 143 -171 168 -66 28 -187 36 -241 16z"/>
<path d="M971 1885 c-68 -19 -109 -44 -156 -96 -44 -49 -73 -110 -81 -173 l-7
-46 65 0 65 0 6 41 c11 80 105 159 189 159 46 0 103 -22 137 -53 28 -26 60
-92 61 -124 0 -22 4 -23 66 -23 l66 0 -7 48 c-28 189 -223 317 -404 267z"/>
<path d="M2071 1885 c-68 -19 -109 -44 -156 -96 -44 -49 -73 -110 -81 -173
l-7 -46 65 0 65 0 6 41 c11 80 105 159 189 159 46 0 103 -22 137 -53 28 -26
60 -92 61 -124 0 -22 4 -23 65 -23 75 0 75 1 49 90 -51 171 -227 271 -393 225z"/>
<path d="M1320 1167 c0 -94 24 -152 89 -218 66 -66 124 -89 221 -89 84 0 152
32 214 101 53 59 76 121 76 206 l0 63 -75 0 -75 0 0 -62 c0 -79 -24 -122 -83
-148 -53 -25 -93 -25 -137 -1 -56 29 -80 73 -80 147 l0 64 -75 0 -75 0 0 -63z"/>
</g>
</svg>
